<svg xmlns="http://www.w3.org/2000/svg" viewBox="0 0 512.01 74.63"><path d="m138.42.523 20.134 25.887L178.688.523h17.127l-28.894 37L194.9 73.607h-17.124l-19.219-24.841-19.088 24.841H122.08l28.109-36.084-29.027-37zM360.03 74.13c-5.753 0-10.982-1.002-15.689-3.007-4.707-2.092-8.762-4.881-12.162-8.367a38.732 38.732 0 0 1-7.844-12.028A35.785 35.785 0 0 1 321.589 37c0-4.794.959-9.414 2.876-13.86a36.458 36.458 0 0 1 8.109-11.766 38.536 38.536 0 0 1 12.287-8.237C349.568 1.132 354.71.13 360.288.13c5.752 0 10.985 1.09 15.692 3.268 4.707 2.092 8.716 4.925 12.028 8.499a37.177 37.177 0 0 1 7.842 11.897 35.417 35.417 0 0 1 2.748 13.597c0 4.793-.959 9.413-2.876 13.859a38.432 38.432 0 0 1-8.109 11.767c-3.4 3.399-7.45 6.1-12.156 8.105s-9.85 3.007-15.427 3.007zm-22.49-37c0 3.922.918 7.67 2.748 11.244A22.564 22.564 0 0 0 348 56.872c3.4 2.18 7.452 3.269 12.16 3.269 4.793 0 8.846-1.133 12.158-3.4 3.315-2.353 5.84-5.273 7.583-8.76 1.743-3.573 2.618-7.234 2.618-10.981 0-3.922-.915-7.627-2.746-11.113a21.278 21.278 0 0 0-7.847-8.368c-3.312-2.179-7.275-3.268-11.895-3.268-4.794 0-8.893 1.133-12.292 3.4a22.542 22.542 0 0 0-7.583 8.628 23.98 23.98 0 0 0-2.615 10.851zM0 73.607 31.901.523h12.943l31.77 73.084H59.879L52.557 56.48h-28.37l-7.322 17.127zm38.438-53.865-10.721 23.01h21.049zm215.68-10.56-18.9 15.397h12.344v50.049l6.556-5.281zm5.447 55.696 19.233-15.784h-12.687V.189l-6.545 4.557zm238.06-46.704c2.18 1.133 3.748 2.092 4.707 2.876l6.799-12.943c-3.4-2.092-7.496-3.966-12.29-5.622C492.134.83 487.035.001 481.544.001c-5.23 0-10.067.872-14.512 2.615-4.358 1.743-7.845 4.314-10.46 7.714-2.527 3.4-3.79 7.626-3.79 12.682 0 5.665 1.786 10.023 5.36 13.074 3.66 2.963 9.239 5.404 16.735 7.321 6.014 1.57 10.85 3.007 14.512 4.315 3.747 1.22 5.621 3.268 5.621 6.144 0 4.271-4.009 6.407-12.028 6.407-4.009 0-7.8-.48-11.374-1.438-3.573-.96-6.71-2.136-9.413-3.53-2.615-1.395-4.489-2.659-5.622-3.792l-7.06 13.728c4.533 2.876 9.719 5.143 15.558 6.799 5.84 1.656 11.723 2.484 17.65 2.484 5.143 0 9.937-.698 14.381-2.092 4.446-1.482 8.02-3.835 10.721-7.06 2.79-3.312 4.184-7.67 4.184-13.074 0-4.445-1.046-8.019-3.138-10.721-2.004-2.79-4.924-5.012-8.76-6.668-3.747-1.656-8.192-3.138-13.335-4.445-5.84-1.395-10.285-2.659-13.336-3.792-2.964-1.133-4.446-3.05-4.446-5.752 0-4.62 4.097-6.93 12.29-6.93 3.051 0 6.015.436 8.89 1.308 2.877.784 5.361 1.743 7.453 2.876z" fill="#5a29e4"/></svg>