<svg width="128" height="128" viewBox="0 0 128 128" fill="none" xmlns="http://www.w3.org/2000/svg">
<path opacity="0.964" fill-rule="evenodd" clip-rule="evenodd" d="M83.625 7.875C84.7482 13.374 87.04 18.374 90.5 22.875C94.679 27.4452 99.804 30.4452 105.875 31.875C93.4178 35.166 86.0845 43.166 83.875 55.875C81.6655 43.166 74.3322 35.166 61.875 31.875C74.3827 28.6182 81.6327 20.6182 83.625 7.875Z" fill="#FB568A"/>
<path opacity="0.981" fill-rule="evenodd" clip-rule="evenodd" d="M47.625 23.875C49.024 32.2762 51.899 40.1927 56.25 47.625C63.7695 59.2595 74.3112 66.6763 87.875 69.875C68.5305 74.9277 55.9055 87.011 50 106.125C49.094 109.332 48.3857 112.582 47.875 115.875C46.004 101.338 39.5872 89.296 28.625 79.75C22.4389 74.991 15.5222 71.6992 7.875 69.875C28.3183 64.39 41.1932 51.39 46.5 30.875C47.1177 28.578 47.4927 26.2448 47.625 23.875Z" fill="#FFCC49"/>
<path opacity="0.964" fill-rule="evenodd" clip-rule="evenodd" d="M97.625 71.875C98.7482 77.374 101.04 82.374 104.5 86.875C108.679 91.4452 113.804 94.4452 119.875 95.875C107.418 99.166 100.084 107.166 97.875 119.875C95.6655 107.166 88.3322 99.166 75.875 95.875C88.3827 92.6182 95.6327 84.6182 97.625 71.875Z" fill="#5BB3FB"/>
</svg>
